<svg width="652" height="652" viewBox="0 0 652 652" fill="none" xmlns="http://www.w3.org/2000/svg">
    <path d="M572 71H72V571H572V71Z" fill="#FF4655"/>
    <path d="M227.3 326.461L291.1 406.261C292.1 407.561 293.7 408.261 295.4 408.261H356.8C357.9 408.261 358.5 407.061 357.8 406.261L228.3 244.461C227.5 243.561 226 244.061 226 245.261V323.061C226.1 324.261 226.5 325.461 227.3 326.461Z"
          fill="#111111"/>
    <path d="M423.901 326.461L360.101 406.261C359.101 407.561 357.501 408.261 355.801 408.261H294.401C293.301 408.261 292.701 407.061 293.401 406.261L422.901 244.461C423.701 243.561 425.201 244.061 425.201 245.261V323.061C425.101 324.261 424.701 325.461 423.901 326.461Z"
          fill="#111111"/>
</svg>